<?xml version="1.0" encoding="UTF-8"?>
<svg version="1.1" xmlns="http://www.w3.org/2000/svg" width="512" height="512">
<path d="M0 0 C1.9589134 -0.00322582 3.91782657 -0.0065908 5.8767395 -0.01008606 C9.9663346 -0.01603615 14.0559087 -0.01793039 18.14550781 -0.01733398 C22.28585196 -0.01725297 26.4260849 -0.02416223 30.56640625 -0.0378418 C75.33739044 -0.1834774 75.33739044 -0.1834774 95.5078125 2.16796875 C96.1924054 2.24367096 96.87699829 2.31937317 97.58233643 2.39736938 C101.36377908 2.82074117 105.12306145 3.33399617 108.8828125 3.91796875 C109.99035889 4.0886084 111.09790527 4.25924805 112.23901367 4.43505859 C149.84647384 10.44779441 187.51789919 20.65861849 217.5078125 45.16796875 C218.10916016 45.65265625 218.71050781 46.13734375 219.33007812 46.63671875 C257.6960273 77.7508148 274.11995708 124.78636925 279.1953125 172.79296875 C281.11057756 191.27753366 281.66923614 209.64924496 281.67578125 228.21875 C281.67900806 230.41041585 281.68237311 232.60208151 281.68586731 234.79374695 C281.69181321 239.36649066 281.69371206 243.9392156 281.69311523 248.51196289 C281.69303421 253.13797943 281.69994515 257.76389644 281.71362305 262.38989258 C282.04718854 376.91362154 282.04718854 376.91362154 253.5078125 426.16796875 C253.16959473 426.75497559 252.83137695 427.34198242 252.48291016 427.94677734 C229.77384914 466.80262535 190.01848377 489.38578861 147.52166748 500.69659424 C127.80870183 505.79420193 107.75749743 509.09367761 87.5078125 511.16796875 C86.73169113 511.25385254 85.95556976 511.33973633 85.15592957 511.42822266 C75.02509635 512.42772073 64.88403464 512.35137585 54.71484375 512.37109375 C53.71894415 512.37392113 52.72304455 512.3767485 51.69696617 512.37966156 C46.40694294 512.39459711 41.11694649 512.40385721 35.8269043 512.40820312 C31.52668614 512.41255345 27.22667251 512.4263184 22.92651367 512.44921875 C-49.1310147 512.82528986 -127.89165169 506.90980081 -182.12109375 453.66796875 C-191.34301885 444.28103903 -198.43838847 433.81685987 -204.4921875 422.16796875 C-204.93723633 421.34780273 -205.38228516 420.52763672 -205.84082031 419.68261719 C-210.41614302 410.98205237 -213.56564884 401.98144484 -216.6171875 392.66796875 C-216.88087128 391.86817596 -217.14455505 391.06838318 -217.41622925 390.24435425 C-228.72903357 355.78438783 -230.64744024 320.19446541 -230.66015625 284.1171875 C-230.66338306 281.92552165 -230.66674811 279.73385599 -230.67024231 277.54219055 C-230.67618821 272.96944684 -230.67808706 268.3967219 -230.67749023 263.82397461 C-230.67740921 259.19795807 -230.68432015 254.57204106 -230.69799805 249.94604492 C-230.89326981 182.89651994 -229.49705565 106.50428271 -179.4921875 55.16796875 C-170.73495686 46.63786346 -160.96119354 39.446949 -150.4921875 33.16796875 C-149.75742188 32.72598145 -149.02265625 32.28399414 -148.265625 31.82861328 C-104.72452916 6.18997052 -49.55108735 0.01948899 0 0 Z " fill="#FF464B" transform="translate(230.4921875,-0.16796875)"/>
<path d="M0 0 C2.20177466 0.0035854 4.40355398 0.00493278 6.60533142 0.00416565 C11.20910612 0.0088405 15.81217454 0.03354109 20.41577148 0.07397461 C26.26314209 0.12473057 32.10973413 0.13642197 37.95729923 0.13413906 C42.50379114 0.13496268 47.05011904 0.15154448 51.59655571 0.17314339 C53.74951377 0.18257139 55.90249008 0.18857402 58.05546761 0.19082451 C88.24630322 0.25690848 118.21412992 5.24640083 140.96484375 26.75390625 C160.05140849 45.96936727 163.80445341 71.29198859 163.85986328 97.15942383 C163.78511813 107.98542348 161.98707243 116.92702577 157.40234375 126.69140625 C156.96921875 127.70460938 156.53609375 128.7178125 156.08984375 129.76171875 C147.79556682 147.09083305 130.78272678 158.75632401 113.40234375 165.69140625 C105.20095633 168.47789817 96.80205677 170.59861656 88.40234375 172.69140625 C95.60634435 180.81298959 103.02873524 188.72066386 110.46484375 196.62890625 C118.30367152 204.97346484 126.10927828 213.34905495 133.85961914 221.77587891 C136.52603079 224.67174962 139.20785141 227.55162655 141.91015625 230.4140625 C166.13618641 256.09961035 166.13618641 256.09961035 165.81640625 270.92578125 C165.21760877 276.37144893 163.46906486 280.20990447 160.40234375 284.69140625 C159.99113281 285.3359375 159.57992187 285.98046875 159.15625 286.64453125 C154.9867863 292.33578734 148.996139 295.48303302 142.40234375 297.69140625 C133.07078844 299.01827076 124.45902288 297.61965055 116.58984375 292.37890625 C107.56454187 285.12643152 100.5982879 275.04101161 93.54760742 265.94335938 C90.28401692 261.75157032 86.88505097 257.70233899 83.40234375 253.69140625 C79.43412595 249.12132509 75.60863481 244.47638898 71.90234375 239.69140625 C67.64891776 234.20082993 63.21223019 228.90462192 58.66748047 223.65356445 C55.23251295 219.67919882 51.91403563 215.63325965 48.65625 211.51171875 C45.6314339 207.72676688 42.54839578 203.9910638 39.46484375 200.25390625 C38.85866211 199.51906006 38.25248047 198.78421387 37.62792969 198.02709961 C36.43738644 196.58394379 35.2467952 195.14082755 34.05615234 193.69775391 C29.1336841 187.72597297 24.23402259 181.73695515 19.40234375 175.69140625 C19.39869812 176.88442352 19.39505249 178.0774408 19.39129639 179.30661011 C19.35427768 190.5762239 19.29642972 201.84556619 19.21844101 213.11497307 C19.17901331 218.90804007 19.14680161 224.70095613 19.13134766 230.49414062 C19.11615028 236.08995359 19.08164953 241.68535145 19.03403473 247.28097916 C19.01925277 249.41064969 19.01130457 251.5403795 19.0104599 253.67010117 C19.00807893 256.66446399 18.98090801 259.6576901 18.94824219 262.65185547 C18.95578773 263.95845879 18.95578773 263.95845879 18.96348572 265.29145813 C18.82041138 273.82605191 16.11725742 281.82078513 10.24609375 288.15625 C2.33133657 294.74629147 -6.60726753 296.34010829 -16.625 296.09765625 C-24.23663516 295.31927861 -30.85291537 291.9767843 -36.09765625 286.37890625 C-42.52004262 277.83466952 -43.74686161 269.14997733 -43.74482727 258.77362061 C-43.74850396 257.76706114 -43.75218065 256.76050168 -43.75596875 255.72344041 C-43.76699247 252.34654625 -43.77084719 248.96968288 -43.7746582 245.59277344 C-43.78092375 243.17317101 -43.78757063 240.75356953 -43.79457092 238.33396912 C-43.81378425 231.07158319 -43.824396 223.80919982 -43.83329871 216.5467962 C-43.83768631 213.12403357 -43.84305181 209.70127247 -43.84828758 206.27851105 C-43.86529451 194.89656267 -43.8797887 183.51461523 -43.88703632 172.1326561 C-43.8889461 169.18137358 -43.89086645 166.23009108 -43.89282227 163.27880859 C-43.89330601 162.54531505 -43.89378975 161.8118215 -43.89428815 161.05610088 C-43.90258869 149.17374175 -43.92792838 137.29148327 -43.96040294 125.40916809 C-43.99349416 113.20144036 -44.01148684 100.99376377 -44.01468056 88.78599095 C-44.01684349 81.93511154 -44.0255604 75.08437903 -44.05114174 68.2335434 C-44.07515229 61.78866589 -44.0786615 55.34398088 -44.06838036 48.89906502 C-44.06788456 46.53559808 -44.07421793 44.1721182 -44.0879364 41.80869102 C-44.10563843 38.57785304 -44.09855669 35.34796533 -44.08540344 32.11712646 C-44.09637269 31.18568841 -44.10734193 30.25425035 -44.11864358 29.2945869 C-44.04224721 21.50230277 -41.74473585 13.91086702 -36.27110291 8.09422302 C-25.36600523 -1.04730168 -13.47209451 -0.14574044 0 0 Z " fill="#FFFEFE" transform="translate(195.59765625,107.30859375)"/>
<path d="M0 0 C7.6725 -0.061875 15.345 -0.12375 23.25 -0.1875 C25.64668945 -0.21481201 28.04337891 -0.24212402 30.51269531 -0.27026367 C32.45116678 -0.2790404 34.38964386 -0.28668151 36.328125 -0.29296875 C37.79064697 -0.3159906 37.79064697 -0.3159906 39.28271484 -0.33947754 C51.33620811 -0.34396841 63.12927447 2.29708005 72.1875 10.5625 C80.07755051 19.10616416 81.70980374 27.39148523 81.51733398 38.72119141 C81.00381952 50.68212841 76.77187491 57.82791141 68 66 C59.62159245 72.73631431 48.28301382 73.4473715 37.98828125 73.29296875 C37.01644897 73.28994751 36.0446167 73.28692627 35.04333496 73.28381348 C31.46627954 73.26829935 27.88937735 73.22641778 24.3125 73.1875 C12.2778125 73.0946875 12.2778125 73.0946875 0 73 C0 48.91 0 24.82 0 0 Z " fill="#FF4754" transform="translate(214,165)"/>
</svg>
